<svg width="0" height="0" class="hidden">
  <symbol fill="none" xmlns="http://www.w3.org/2000/svg" viewBox="0 0 16 16" id="search">
    <path fill-rule="evenodd" clip-rule="evenodd" d="M7.333 2.667a4.667 4.667 0 100 9.333 4.667 4.667 0 000-9.333zm-6 4.666a6 6 0 1112 0 6 6 0 01-12 0z" fill="#fff"></path>
    <path fill-rule="evenodd" clip-rule="evenodd" d="M10.629 10.629c.26-.26.682-.26.942 0l2.9 2.9a.667.667 0 11-.942.942l-2.9-2.9a.667.667 0 010-.942z" fill="#fff"></path>
  </symbol>
  <symbol fill="none" xmlns="http://www.w3.org/2000/svg" viewBox="0 0 8 8" id="star">
    <path fill-rule="evenodd" clip-rule="evenodd" d="M4 .333c.127 0 .243.072.299.186l.952 1.93 2.13.311a.333.333 0 01.185.569l-1.541 1.5.364 2.121a.333.333 0 01-.484.352L4 6.3 2.095 7.302a.333.333 0 01-.483-.352l.363-2.12-1.54-1.501a.333.333 0 01.184-.569l2.13-.311L3.7.519A.333.333 0 014 .333zM4 1.42L3.269 2.9a.333.333 0 01-.25.183l-1.636.24 1.183 1.152a.333.333 0 01.096.295l-.28 1.627 1.463-.769a.333.333 0 01.31 0l1.462.77-.279-1.628a.333.333 0 01.096-.295l1.183-1.153-1.635-.239a.333.333 0 01-.25-.182L4 1.42z" fill="#F2994A"></path>
    <path d="M2.333 5L1 3l2-.333L4 1l1 1.667 2 .666-1.333 1.334L6 7 4 6 2 7l.333-2z" fill="#F2994A"></path>
  </symbol>
</svg>