<svg width="0" height="0" class="hidden">
  <symbol fill="none" xmlns="http://www.w3.org/2000/svg" viewBox="0 0 16 16" id="search">
    <path fill-rule="evenodd" clip-rule="evenodd" d="M7.333 2.667a4.667 4.667 0 100 9.333 4.667 4.667 0 000-9.333zm-6 4.666a6 6 0 1112 0 6 6 0 01-12 0z" fill="#fff"></path>
    <path fill-rule="evenodd" clip-rule="evenodd" d="M10.629 10.629c.26-.26.682-.26.942 0l2.9 2.9a.667.667 0 11-.942.942l-2.9-2.9a.667.667 0 010-.942z" fill="#fff"></path>
  </symbol>
  <symbol fill="none" xmlns="http://www.w3.org/2000/svg" viewBox="0 0 8 8" id="star">
    <path fill-rule="evenodd" clip-rule="evenodd" d="M4 .333c.127 0 .243.072.299.186l.952 1.93 2.13.311a.333.333 0 01.185.569l-1.541 1.5.364 2.121a.333.333 0 01-.484.352L4 6.3 2.095 7.302a.333.333 0 01-.483-.352l.363-2.12-1.54-1.501a.333.333 0 01.184-.569l2.13-.311L3.7.519A.333.333 0 014 .333zM4 1.42L3.269 2.9a.333.333 0 01-.25.183l-1.636.24 1.183 1.152a.333.333 0 01.096.295l-.28 1.627 1.463-.769a.333.333 0 01.31 0l1.462.77-.279-1.628a.333.333 0 01.096-.295l1.183-1.153-1.635-.239a.333.333 0 01-.25-.182L4 1.42z" fill="#F2994A"></path>
    <path d="M2.333 5L1 3l2-.333L4 1l1 1.667 2 .666-1.333 1.334L6 7 4 6 2 7l.333-2z" fill="#F2994A"></path>
  </symbol>
  <symbol fill="none" xmlns="http://www.w3.org/2000/svg" viewBox="0 0 10 18" id="slider-arrow">
    <path fill-rule="evenodd" clip-rule="evenodd" d="M9.263.616c.47.488.47 1.28 0 1.768L2.902 9l6.361 6.616c.47.488.47 1.28 0 1.768a1.17 1.17 0 01-1.7 0l-7.211-7.5a1.286 1.286 0 010-1.768l7.212-7.5a1.17 1.17 0 011.7 0z" fill="#fff" fill-opacity=".8"></path>
  </symbol>
  <symbol fill="none" xmlns="http://www.w3.org/2000/svg" viewBox="0 0 14 14" id="home">
    <path fill-rule="evenodd" clip-rule="evenodd" d="M6.642.706a.583.583 0 01.716 0l5.25 4.084c.142.11.225.28.225.46v6.417a1.75 1.75 0 01-1.75 1.75H2.917a1.75 1.75 0 01-1.75-1.75V5.25c0-.18.083-.35.225-.46L6.642.706zm-4.309 4.83v6.13a.583.583 0 00.584.584h8.166a.583.583 0 00.584-.583V5.535L7 1.905l-4.667 3.63z" fill="#fff"></path>
    <path fill-rule="evenodd" clip-rule="evenodd" d="M4.667 7c0-.322.26-.583.583-.583h3.5c.322 0 .583.26.583.583v5.833a.583.583 0 11-1.166 0v-5.25H5.833v5.25a.583.583 0 11-1.166 0V7z" fill="#fff"></path>
  </symbol>
  <symbol fill="none" xmlns="http://www.w3.org/2000/svg" viewBox="0 0 14 14" id="user">
    <path fill-rule="evenodd" clip-rule="evenodd" d="M2.604 9.02a2.917 2.917 0 012.063-.853h4.666a2.917 2.917 0 012.917 2.916v1.167a.583.583 0 11-1.167 0v-1.167a1.75 1.75 0 00-1.75-1.75H4.667a1.75 1.75 0 00-1.75 1.75v1.167a.583.583 0 11-1.167 0v-1.167c0-.773.307-1.515.854-2.062zM7 2.333a1.75 1.75 0 100 3.5 1.75 1.75 0 000-3.5zm-2.917 1.75a2.917 2.917 0 115.834 0 2.917 2.917 0 01-5.834 0z" fill="#fff"></path>
  </symbol>
  <symbol fill="none" xmlns="http://www.w3.org/2000/svg" viewBox="0 0 14 14" id="phone-call">
    <g clip-path="url(#clip0)">
      <path d="M11.667 13.358h-.175c-1.867-.233-3.734-.875-5.309-1.866a12.267 12.267 0 01-3.675-3.675A11.617 11.617 0 01.642 2.508c0-.466.116-.933.408-1.283.292-.35.7-.583 1.167-.642h1.925A1.76 1.76 0 015.892 2.1c.058.525.175 1.05.35 1.517.233.641.058 1.341-.409 1.866l-.408.409c.7 1.05 1.575 1.983 2.683 2.683l.409-.408a1.823 1.823 0 011.866-.409 6.39 6.39 0 001.517.35 1.761 1.761 0 011.517 1.75v1.75c0 .467-.175.934-.525 1.225-.35.292-.759.525-1.225.525zM4.142 1.75h-1.75c-.175 0-.35.117-.467.233-.058.117-.117.234-.117.409A10.972 10.972 0 003.5 7.175c.875 1.342 1.983 2.508 3.325 3.325a10.973 10.973 0 004.783 1.692c.234 0 .35-.059.467-.175a.53.53 0 00.175-.409v-1.75c0-.291-.233-.525-.525-.583-.583-.058-1.167-.233-1.75-.467-.233-.058-.467-.058-.642.117l-.758.758a.62.62 0 01-.7.117 9.572 9.572 0 01-3.733-3.733c-.059-.234 0-.525.175-.7l.758-.759c.117-.116.175-.408.117-.583-.234-.583-.35-1.167-.467-1.75 0-.292-.292-.525-.583-.525zm6.941 4.083a.568.568 0 01-.583-.466c-.175-.934-.933-1.634-1.867-1.867a.605.605 0 01-.466-.7.605.605 0 01.7-.467c1.4.292 2.508 1.342 2.741 2.742.059.292-.116.642-.466.7 0 0 0 .058-.059.058zm2.334-.058c-.292 0-.525-.233-.584-.525-.233-2.158-1.925-3.85-4.141-4.142a.683.683 0 01-.525-.641c0-.292.35-.525.641-.525 2.742.291 4.842 2.391 5.134 5.133.058.292-.175.583-.525.642.058.058 0 .058 0 .058z" fill="#fff"></path>
    </g>
    <defs>
      <clipPath id="clip0">
        <path fill="#fff" d="M0 0h14v14H0z"></path>
      </clipPath>
    </defs>
  </symbol>
  <symbol fill="none" xmlns="http://www.w3.org/2000/svg" viewBox="0 0 21 21" id="yt">
    <path d="M12.183 10.325l-2.358-1.1c-.206-.096-.375.01-.375.239v2.072c0 .228.169.335.375.24l2.357-1.1c.207-.097.207-.255.001-.351zM10.5.42C4.933.42.42 4.933.42 10.5S4.933 20.58 10.5 20.58s10.08-4.513 10.08-10.08S16.067.42 10.5.42zm0 14.175c-5.16 0-5.25-.465-5.25-4.095s.09-4.095 5.25-4.095 5.25.465 5.25 4.095-.09 4.095-5.25 4.095z" fill="#BDBDBD"></path>
  </symbol>
  <symbol fill="none" xmlns="http://www.w3.org/2000/svg" viewBox="0 0 20 20" id="fb">
    <path d="M10.001.002C4.479.002.002 4.479.002 10.001c0 4.99 3.656 9.126 8.437 9.879v-6.988h-2.54v-2.891h2.54V7.798c0-2.508 1.493-3.891 3.776-3.891 1.094 0 2.24.195 2.24.195v2.459h-1.264c-1.24 0-1.628.772-1.628 1.563v1.875h2.771l-.443 2.891h-2.328v6.988C16.344 19.129 20 14.992 20 10.001 20 4.479 15.523.002 10.001.002z" fill="#BDBDBD"></path>
  </symbol>
  <symbol fill="none" xmlns="http://www.w3.org/2000/svg" viewBox="0 0 20 20" id="inst">
    <path d="M10 20a9.811 9.811 0 01-3.887-.791c-1.237-.527-2.301-1.237-3.193-2.129-.892-.892-1.602-1.956-2.129-3.193A9.81 9.81 0 010 10c0-1.354.264-2.65.791-3.887S2.028 3.812 2.92 2.92c.892-.892 1.956-1.602 3.193-2.13A9.81 9.81 0 0110 0a9.81 9.81 0 013.887.791c1.237.527 2.301 1.237 3.193 2.129.892.892 1.602 1.956 2.129 3.193A9.811 9.811 0 0120 10c0 1.354-.264 2.65-.791 3.887s-1.237 2.301-2.129 3.193c-.892.892-1.956 1.602-3.193 2.129A9.811 9.811 0 0110 20zm5-13.75c0-.339-.12-.632-.361-.879A1.192 1.192 0 0013.75 5h-7.5c-.339 0-.632.124-.879.371S5 5.911 5 6.25V7.5h2.227c.755-.833 1.68-1.25 2.773-1.25 1.094 0 2.018.417 2.773 1.25H15V6.25zM7.5 10c0 .69.244 1.28.732 1.768A2.409 2.409 0 0010 12.5c.69 0 1.28-.244 1.768-.732A2.409 2.409 0 0012.5 10c0-.69-.244-1.28-.732-1.768A2.409 2.409 0 0010 7.5c-.69 0-1.28.244-1.768.732A2.409 2.409 0 007.5 10zM15 8.75h-1.484c.156.43.234.846.234 1.25 0 1.042-.365 1.927-1.094 2.656-.729.73-1.614 1.094-2.656 1.094s-1.927-.365-2.656-1.094C6.614 11.927 6.25 11.042 6.25 10c0-.404.078-.82.234-1.25H5v5c0 .352.12.648.361.889.241.24.537.361.889.361h7.5c.352 0 .648-.12.889-.361.24-.241.361-.537.361-.889v-5z" fill="#BDBDBD"></path>
  </symbol>
  <symbol fill="none" xmlns="http://www.w3.org/2000/svg" viewBox="0 0 14 20" id="map">
    <path d="M7 0C3.13 0 0 3.13 0 7c0 4.17 4.42 9.92 6.24 12.11.4.48 1.13.48 1.53 0C9.58 16.92 14 11.17 14 7c0-3.87-3.13-7-7-7zm0 9.5a2.5 2.5 0 110-5 2.5 2.5 0 010 5z" fill="#BDBDBD"></path>
  </symbol>
  <symbol fill="none" xmlns="http://www.w3.org/2000/svg" viewBox="0 0 20 20" id="footer-call">
    <path d="M17.167 9.54h1.916c0-4.915-3.711-8.623-8.634-8.623v1.916c3.893 0 6.718 2.82 6.718 6.708z" fill="#BDBDBD"></path>
    <path d="M10.458 6.667c2.016 0 2.875.86 2.875 2.875h1.917c0-3.091-1.701-4.792-4.792-4.792v1.917zm3.28 5.216a.96.96 0 00-1.333.041l-2.294 2.358c-.552-.105-1.661-.45-2.804-1.59-1.142-1.144-1.488-2.256-1.59-2.804l2.356-2.295a.958.958 0 00.041-1.333l-3.54-3.893a.958.958 0 00-1.334-.084L1.16 4.067a.958.958 0 00-.277.622c-.015.24-.289 5.914 4.112 10.317 3.839 3.838 8.648 4.119 9.972 4.119.194 0 .313-.006.344-.008a.95.95 0 00.621-.279l1.783-2.08a.958.958 0 00-.083-1.333l-3.894-3.542z" fill="#BDBDBD"></path>
  </symbol>
  <symbol fill="none" xmlns="http://www.w3.org/2000/svg" viewBox="0 0 18 14" id="mail">
    <path d="M15.667.333H2.333C1.417.333.675 1.083.675 2L.667 12c0 .917.75 1.667 1.666 1.667h13.334c.916 0 1.666-.75 1.666-1.667V2c0-.917-.75-1.667-1.666-1.667zm-.334 3.542L9.442 7.558a.843.843 0 01-.884 0L2.667 3.875a.708.708 0 11.75-1.2L9 6.167l5.583-3.492a.708.708 0 11.75 1.2z" fill="#BDBDBD"></path>
  </symbol>
  <symbol fill="none" xmlns="http://www.w3.org/2000/svg" viewBox="0 0 17 16" id="close">
    <path d="M10.414 8l6.243-6.23a1.034 1.034 0 000-1.466 1.04 1.04 0 00-1.468 0l-6.244 6.23L2.702.304a1.04 1.04 0 00-1.469 0 1.034 1.034 0 000 1.466L7.477 8l-6.244 6.23a1.037 1.037 0 101.469 1.466l6.243-6.23 6.244 6.23a1.037 1.037 0 001.468 0 1.034 1.034 0 000-1.466L10.414 8z" fill="#fff"></path>
  </symbol>
</svg>